<svg xmlns="http://www.w3.org/2000/svg" viewBox="0 0 200 200">
  <!-- Earth Monster Level 1 -->
  <!-- Body -->
  <circle cx="100" cy="100" r="40" fill="#8d6e63"/>
  <circle cx="100" cy="100" r="38" fill="#a1887f"/>

  <!-- Spots -->
  <path d="M85,90 Q88,85 92,88 Z" fill="#4e342e" opacity="0.5"/>
  <path d="M110,115 Q115,112 112,108 Z" fill="#4e342e" opacity="0.5"/>
  <path d="M90,120 Q95,125 98,118 Z" fill="#4e342e" opacity="0.5"/>

  <!-- Rock formations -->
  <path d="M70,90 L65,75 L75,80 L70,90" fill="#6d4c41"/>
  <path d="M130,90 L135,75 L125,80 L130,90" fill="#6d4c41"/>
  <path d="M100,60 L95,50 L105,50 L100,60" fill="#6d4c41"/>

  <!-- Eyes -->
  <circle cx="85" cy="85" r="10" fill="white"/>
  <circle cx="115" cy="85" r="10" fill="white"/>
  <circle cx="85" cy="85" r="5" fill="black"/>
  <circle cx="115" cy="85" r="5" fill="black"/>
  <circle cx="87" cy="83" r="2" fill="white"/>
  <circle cx="117" cy="83" r="2" fill="white"/>

  <!-- Mouth -->
  <path d="M90,110 Q100,120 110,110" stroke="black" stroke-width="2" fill="none"/>

  <!-- Small rocks -->
  <circle cx="75" cy="115" r="5" fill="#6d4c41"/>
  <circle cx="125" cy="115" r="5" fill="#6d4c41"/>

  <!-- Shadow -->
  <ellipse cx="100" cy="145" rx="30" ry="5" fill="#00000033"/>
</svg>
